<?xml-stylesheet type="text/css" href="../css/style.css"?><svg xmlns="http://www.w3.org/2000/svg" viewBox="0 0 1024 768"><path class="logo-svg" d="M762.4 114.8h-239v533.6c9.6 4.4 16.3 14.1 16.3 25.4 0 15.5-12.5 28-28 28 -15.5 0-28-12.5-28-28 0-11.3 6.7-21 16.3-25.4V114.8H243.6c-6.5 0-11.7-5.2-11.7-11.7 0-6.5 5.2-11.7 11.7-11.7h518.8c6.5 0 11.7 5.2 11.7 11.7C774.1 109.6 768.8 114.8 762.4 114.8M821.4 5.8H202.6c-12.6 0-23.3 10.7-23.3 23.3v141.6c0 12.6 10.7 23.3 23.3 23.3h193c10.7 0 19.4 8.7 19.4 19.4V739c0 12.6 10.7 23.3 23.3 23.3h147.4c12.6 0 23.3-10.7 23.3-23.3V213.3c0-10.7 8.7-19.4 19.4-19.4h193c12.6 0 23.3-10.7 23.3-23.3V29C844.7 16.4 834 5.8 821.4 5.8"/></svg>
