<?xml version="1.0" encoding="UTF-8" standalone="no"?>
<!-- Created with Inkscape (http://www.inkscape.org/) -->

<svg
   xmlns:dc="http://purl.org/dc/elements/1.1/"
   xmlns:cc="http://creativecommons.org/ns#"
   xmlns:rdf="http://www.w3.org/1999/02/22-rdf-syntax-ns#"
   xmlns:svg="http://www.w3.org/2000/svg"
   xmlns="http://www.w3.org/2000/svg"
   xmlns:sodipodi="http://sodipodi.sourceforge.net/DTD/sodipodi-0.dtd"
   xmlns:inkscape="http://www.inkscape.org/namespaces/inkscape"
   width="276.94315mm"
   height="34.335705mm"
   viewBox="0 0 981.29461 121.66194"
   id="svg3627"
   version="1.1"
   inkscape:version="0.91 r13725"
   sodipodi:docname="tinderbox.svg">
  <defs
     id="defs3629" />
  <sodipodi:namedview
     id="base"
     pagecolor="#ffffff"
     bordercolor="#666666"
     borderopacity="1.0"
     inkscape:pageopacity="0.0"
     inkscape:pageshadow="2"
     inkscape:zoom="0.67769907"
     inkscape:cx="603.55237"
     inkscape:cy="60.595022"
     inkscape:document-units="px"
     inkscape:current-layer="layer1"
     showgrid="false"
     inkscape:window-width="1920"
     inkscape:window-height="1056"
     inkscape:window-x="0"
     inkscape:window-y="24"
     inkscape:window-maximized="1"
     fit-margin-top="0"
     fit-margin-left="0"
     fit-margin-right="0"
     fit-margin-bottom="0" />
  <metadata
     id="metadata3632">
    <rdf:RDF>
      <cc:Work
         rdf:about="">
        <dc:format>image/svg+xml</dc:format>
        <dc:type
           rdf:resource="http://purl.org/dc/dcmitype/StillImage" />
        <dc:title></dc:title>
      </cc:Work>
    </rdf:RDF>
  </metadata>
  <g
     inkscape:label="Layer 1"
     inkscape:groupmode="layer"
     id="layer1"
     transform="translate(122.07589,-420.10265)">
    <path
       d="m 478.19212,506.6176 c -0.89936,-1.351 -0.59957,-3.15363 0.89937,-3.90505 13.92074,-7.6602 20.35648,-22.0793 20.35648,-37.5496 0,-23.2804 -13.77084,-42.80759 -43.71085,-42.80759 l -53.44234,0 c -1.94474,0 -3.59163,1.65273 -3.59163,3.60526 l 0,109.9468 c 0,1.95252 1.64689,3.60526 3.59163,3.60526 l 22.60491,0 c 1.94668,0 3.59358,-1.65274 3.59358,-3.60526 l 0,-24.78324 c 0,-1.65274 1.3471,-3.00374 2.994,-3.00374 l 9.28179,0 c 1.79484,0 3.74153,0.90132 4.78884,2.40221 l 18.2638,25.98435 c 1.3471,1.80263 3.44174,3.00568 5.68821,3.00568 l 28.59291,0 c 1.49505,0 2.39442,-1.65274 1.49505,-3.00568 l -21.40575,-29.8894 z m -62.59953,-65.43975 0,84.92607 c 0,1.00059 -0.80788,1.81041 -1.80653,1.81041 -0.9967,0 -1.80457,-0.80982 -1.80457,-1.81041 l 0,-84.92607 c -1.48532,-0.68718 -2.51901,-2.19002 -2.51901,-3.93814 0,-2.39637 1.93695,-4.33916 4.32358,-4.33916 2.38858,0 4.32359,1.94279 4.32359,4.33916 0,1.74812 -1.03174,3.25096 -2.51706,3.93814 m 11.80469,-4.00433 c 0,-1.00254 0.80788,-1.81236 1.80458,-1.81236 l 28.51309,0 c 7.31564,0 14.16018,2.40805 19.26828,6.7803 6.01915,5.15287 9.20004,12.68849 9.20004,21.79313 0,20.75945 -16.28402,30.16194 -16.97704,30.55127 -0.28032,0.15768 -0.58401,0.23166 -0.88185,0.23166 -0.63267,0 -1.24588,-0.33288 -1.57681,-0.92662 -0.48862,-0.87212 -0.17715,-1.97589 0.69107,-2.46451 0.61515,-0.3504 15.13352,-8.80485 15.13352,-27.3918 0,-17.23594 -12.48603,-24.95065 -24.85721,-24.95065 l -28.51309,0 c -0.9967,0 -1.80458,-0.80982 -1.80458,-1.81042 m 1.09599,40.75579 0,-25.23293 c 0,-1.65273 1.3471,-3.00373 2.994,-3.00373 l 22.60295,0 c 11.97601,0 16.46701,6.75889 16.46701,15.77009 0,8.11184 -4.491,15.47225 -16.46701,15.47225 l -22.60295,0 c -1.6469,0 -2.994,-1.35294 -2.994,-3.00568 m 46.52771,49.40491 c -0.32121,0.2336 -0.69108,0.34651 -1.059,0.34651 -0.5587,0 -1.10961,-0.26086 -1.46391,-0.74753 l -23.30571,-32.21568 -17.50653,0 c -0.9967,0 -1.80458,-0.81177 -1.80458,-1.81237 0,-1.00059 0.80788,-1.81236 1.80458,-1.81236 l 18.42537,0 c 0.57816,0 1.12129,0.27838 1.46196,0.74948 l 23.84883,32.96126 c 0.58595,0.80982 0.40491,1.94279 -0.40101,2.53069"
       style="fill:#043540;fill-opacity:1;fill-rule:nonzero;stroke:none"
       id="path3412"
       inkscape:connector-curvature="0" />
    <path
       style="fill:#043540;fill-opacity:1;fill-rule:nonzero;stroke:none"
       d="m 45.878889,422.35444 c -1.946685,0 -3.595277,1.65493 -3.595277,3.60745 l 0,109.94511 c 0,1.95252 1.648592,3.6044 3.595277,3.6044 l 22.751885,0 c 1.946684,0 3.595277,-1.65188 3.595277,-3.6044 l 0,-58.72905 c 0,-1.04926 1.195031,-1.50053 1.794594,-0.59922 l 48.052695,60.07956 c 1.34711,1.80263 3.59249,2.85311 5.83702,2.85311 l 18.11633,0 c 1.94668,0 3.59224,-1.65188 3.59224,-3.6044 l 0,-109.94511 c 0,-1.95252 -1.64556,-3.60745 -3.59224,-3.60745 l -22.60587,0 c -1.94668,0 -3.59224,1.65493 -3.59224,3.60745 l 0,58.87809 c 0,1.05121 -1.19807,1.50053 -1.79765,0.59922 L 69.98129,425.2106 c -1.349068,-1.80069 -3.595526,-2.85616 -5.840054,-2.85616 l -18.262347,0 z m 10.521223,13.0732 c 0.996703,0 1.806773,0.81227 1.806773,1.81286 l 0,84.88153 c 1.366572,0.72806 2.299517,2.17201 2.299517,3.83254 0,2.39636 -1.936702,4.33746 -4.325284,4.33746 -2.388582,0 -4.322247,-1.9411 -4.322247,-4.33746 0,-1.83183 1.134309,-3.39867 2.734484,-4.03329 l 0,-84.68078 c 0,-1.00059 0.810055,-1.81286 1.806757,-1.81286 z m 77.505428,0 c 0.9967,0 1.80677,0.81227 1.80677,1.81286 l 0,88.74448 c 0,1.0006 -0.81007,1.81285 -1.80677,1.81285 -0.99865,0 -1.80677,-0.81225 -1.80677,-1.81285 l 0,-88.74448 c 0,-1.00059 0.80812,-1.81286 1.80677,-1.81286 z m -62.199612,13.93097 c 0.4599,0.0431 0.904477,0.26243 1.222752,0.64788 l 48.12265,58.25453 c 0.63657,0.76894 0.52975,1.91043 -0.23724,2.54895 -0.33678,0.28032 -0.74594,0.41975 -1.1528,0.41975 -0.51782,0 -1.03187,-0.22484 -1.39006,-0.657 L 70.14858,452.31818 c -0.636566,-0.77089 -0.529747,-1.91237 0.237247,-2.54894 0.384478,-0.32024 0.860185,-0.4537 1.320101,-0.41063 z"
       id="path3416"
       inkscape:connector-curvature="0" />
    <path
       d="m 686.86289,420.10265 c -33.68348,0 -61.97465,27.3373 -61.97465,60.83 0,33.49661 28.29117,60.83195 61.97465,60.83195 34.13122,0 61.97465,-27.33534 61.97465,-60.83195 0,-33.4927 -27.84343,-60.83 -61.97465,-60.83 m -31.7368,60.83 c 0,-17.72261 14.22248,-31.84192 31.7368,-31.84192 17.96401,0 31.73485,14.11931 31.73485,31.84192 0,17.72457 -13.77084,31.84387 -31.73485,31.84387 -17.51432,0 -31.7368,-14.1193 -31.7368,-31.84387 m 38.76628,49.11097 c -0.0836,0.0124 -0.16742,0.0176 -0.25112,0.0176 -0.88574,0 -1.66053,-0.65603 -1.78511,-1.56318 -0.1383,-0.99087 0.55091,-1.90581 1.53982,-2.04402 22.33821,-3.12443 39.18482,-22.57571 39.18482,-45.24485 0,-23.80406 -18.24044,-43.40328 -41.43324,-45.49013 -0.57427,1.72087 -2.19002,2.96481 -4.09971,2.96481 -1.90775,0 -3.52545,-1.24394 -4.09778,-2.96481 -23.1928,2.08685 -41.43323,21.68607 -41.43323,45.49013 0,22.3129 15.88105,41.2483 37.75984,45.02292 0.98308,0.16937 1.643,1.10572 1.47364,2.09269 -0.16936,0.98502 -1.10182,1.64884 -2.0849,1.47753 -23.61718,-4.07441 -40.75968,-24.5107 -40.75968,-48.59314 0,-25.9493 20.08589,-47.26745 45.4765,-49.15573 0.7631,-1.22641 2.11799,-2.04597 3.66561,-2.04597 1.54956,0 2.9025,0.81956 3.66755,2.04597 25.38866,1.89023 45.4765,23.20643 45.4765,49.15573 0,24.46788 -18.18398,45.46093 -42.29951,48.83453"
       style="fill:#043540;fill-opacity:1;fill-rule:nonzero;stroke:none"
       id="path3420"
       inkscape:connector-curvature="0" />
    <path
       d="m 379.09613,422.35536 -82.48298,0 c -1.94668,0 -3.59358,1.65273 -3.59358,3.60526 l 0,109.9468 c 0,1.95252 1.6469,3.60526 3.59358,3.60526 l 82.48298,0 c 1.94473,0 3.59163,-1.65274 3.59163,-3.60526 l 0,-21.77951 c 0,-1.95252 -1.6469,-3.60331 -3.59163,-3.60331 l -53.14255,0 c -1.64689,0 -2.994,-1.35295 -2.994,-3.00568 l 0,-9.01121 c 0,-1.65273 1.34711,-3.00373 2.994,-3.00373 l 42.51365,0 c 1.94668,0 3.59163,-1.65274 3.59163,-3.60526 l 0,-19.97688 c 0,-1.95252 -1.64495,-3.60526 -3.59163,-3.60526 l -42.51365,0 c -1.64689,0 -2.994,-1.351 -2.994,-3.00373 l 0,-10.81384 c 0,-1.65273 1.34711,-3.00373 2.994,-3.00373 l 53.14255,0 c 1.94473,0 3.59163,-1.65274 3.59163,-3.60526 l 0,-21.9294 c 0,-1.95253 -1.6469,-3.60526 -3.59163,-3.60526 m -53.59223,101.70648 45.23122,0 c 0.9967,0 1.80652,0.81177 1.80652,1.81237 0,1.00059 -0.80982,1.81041 -1.80652,1.81041 l -45.23122,0 c -0.99671,0 -1.80458,-0.80982 -1.80458,-1.81041 0,-1.0006 0.80787,-1.81237 1.80458,-1.81237 m -15.37102,2.04208 c 0,1.00059 -0.80788,1.81041 -1.80458,1.81041 -0.99865,0 -1.80652,-0.80982 -1.80652,-1.81041 l 0,-88.9304 c 0,-1.00254 0.80787,-1.81236 1.80652,-1.81236 0.9967,0 1.80458,0.80982 1.80458,1.81236 l 0,88.9304 z m 15.37102,-47.01244 31.31631,0 c 0.61905,-1.63521 2.19002,-2.79739 4.03548,-2.79739 2.38858,0 4.32553,1.94085 4.32553,4.33722 0,2.39637 -1.93695,4.33916 -4.32553,4.33916 -1.63521,0 -3.05629,-0.913 -3.79214,-2.25621 l -31.55965,0 c -0.99671,0 -1.80458,-0.81177 -1.80458,-1.81042 0,-1.00254 0.80787,-1.81236 1.80458,-1.81236 m 45.23122,-39.84279 -45.23122,0 c -0.99671,0 -1.80458,-0.81177 -1.80458,-1.81237 0,-1.00059 0.80787,-1.81236 1.80458,-1.81236 l 45.23122,0 c 0.9967,0 1.80652,0.81177 1.80652,1.81236 0,1.0006 -0.80982,1.81237 -1.80652,1.81237"
       style="fill:#043540;fill-opacity:1;fill-rule:nonzero;stroke:none"
       id="path3424"
       inkscape:connector-curvature="0" />
    <path
       d="m 858.85988,536.50798 -36.37575,-53.32164 c -0.89742,-1.50089 -0.89742,-3.60331 0,-5.10615 l 35.62822,-52.72012 c 0.74753,-1.351 -0.14997,-3.00373 -1.64689,-3.00373 l -28.14322,0 c -2.24648,0 -4.34111,1.2011 -5.68822,3.00373 l -18.1139,26.58587 c -0.74752,1.20111 -2.54431,1.20111 -3.29184,-0.15184 l -17.96401,-26.43403 c -1.34905,-1.80263 -3.44368,-3.00373 -5.68821,-3.00373 l -28.14322,0 c -1.497,0 -2.39637,1.65273 -1.6469,3.00373 l 35.62823,52.72012 c 0.89742,1.50284 0.89742,3.60526 0,5.10615 l -36.3777,53.32164 c -0.89742,1.35294 0,3.00373 1.497,3.00373 l 29.19054,0 c 2.24647,0 4.34305,-1.2011 5.54026,-3.00373 l 17.96401,-26.58587 c 0.74753,-1.20111 2.54432,-1.20111 3.29184,0 l 18.1139,26.58587 c 1.19721,1.80263 3.29379,3.00373 5.53832,3.00373 l 29.19054,0 c 1.497,0 2.39637,-1.65079 1.497,-3.00373 m -48.62429,-68.9652 22.18247,-31.41754 c 0.57622,-0.81566 1.70335,-1.01033 2.51901,-0.43022 0.81371,0.57817 1.00449,1.70919 0.42827,2.52485 l -22.18247,31.41754 c -0.35235,0.49836 -0.9091,0.76505 -1.47559,0.76505 -0.36208,0 -0.72416,-0.10901 -1.04342,-0.33288 -0.81177,-0.58011 -1.00449,-1.70919 -0.42827,-2.5268 m -15.77788,29.70057 c -0.0525,0 -0.10123,-0.005 -0.14982,-0.006 l -20.29613,29.65774 c -0.34846,0.51003 -0.91494,0.78451 -1.48922,0.78451 -0.35235,0 -0.70859,-0.10309 -1.02006,-0.3173 -0.82345,-0.56649 -1.03174,-1.69362 -0.4672,-2.51901 l 20.0236,-29.26062 c -0.57817,-0.7378 -0.92663,-1.66636 -0.92663,-2.67669 0,-2.39637 1.93696,-4.33916 4.32554,-4.33916 2.38663,0 4.32164,1.94279 4.32164,4.33916 0,2.39637 -1.93501,4.33721 -4.32164,4.33721 m 41.02443,30.23396 c -0.31342,0.21608 -0.66966,0.3212 -1.02396,0.3212 -0.57427,0 -1.13881,-0.27448 -1.48921,-0.78451 l -61.00131,-88.8136 c -0.56649,-0.82344 -0.35819,-1.95252 0.46331,-2.51901 0.81955,-0.56843 1.94474,-0.36013 2.51122,0.46332 l 61.00131,88.81359 c 0.56649,0.82345 0.35819,1.95252 -0.46136,2.51901"
       style="fill:#043540;fill-opacity:1;fill-rule:nonzero;stroke:none"
       id="path3428"
       inkscape:connector-curvature="0" />
    <path
       d="m 223.26461,422.35536 -50.59823,0 c -1.94473,0 -3.59163,1.65273 -3.59163,3.60526 l 0,109.9468 c 0,1.95252 1.6469,3.60526 3.59163,3.60526 l 50.59823,0 c 36.52565,0 55.23912,-26.58587 55.23912,-58.57769 0,-31.84387 -18.71347,-58.57963 -55.23912,-58.57963 m -37.63136,18.8439 c 0.0604,0.18299 0.10123,0.37377 0.10123,0.57622 l 0,84.09289 c 0,1.00059 -0.80788,1.81236 -1.80458,1.81236 -0.99865,0 -1.80652,-0.81177 -1.80652,-1.81236 l 0,-84.09289 c 0,-0.20245 0.041,-0.39323 0.10122,-0.57622 -1.53982,-0.66382 -2.61829,-2.1978 -2.61829,-3.98681 0,-2.39442 1.93501,-4.33721 4.32359,-4.33721 2.38664,0 4.32359,1.94279 4.32359,4.33721 0,1.78901 -1.08041,3.32299 -2.62024,3.98681 m 41.64737,86.36467 -27.51639,0 c -0.99865,0 -1.80652,-0.81177 -1.80652,-1.81236 0,-1.0006 0.80787,-1.81237 1.80652,-1.81237 l 27.51639,0 c 19.15538,0 34.01442,-23.46339 34.01442,-43.65051 0,-23.0137 -15.98812,-41.04 -36.39716,-41.04 l -25.13365,0 c -0.99865,0 -1.80652,-0.81177 -1.80652,-1.81237 0,-1.00059 0.80787,-1.81236 1.80652,-1.81236 l 25.13365,0 c 22.43359,0 40.00826,19.62063 40.00826,44.66473 0,27.05697 -19.86591,47.27524 -37.62552,47.27524 m -28.26586,-20.04501 0,-53.01991 c 0,-1.65273 1.34516,-3.00373 2.99205,-3.00373 l 19.01327,0 c 17.81411,0 27.24386,11.86504 27.24386,29.43971 0,17.57272 -9.42975,29.58961 -27.24386,29.58961 l -19.01327,0 c -1.64689,0 -2.99205,-1.35295 -2.99205,-3.00568"
       style="fill:#043540;fill-opacity:1;fill-rule:nonzero;stroke:none"
       id="path3432"
       inkscape:connector-curvature="0" />
    <path
       d="m 599.29304,480.48336 c -1.19721,-0.60153 -1.19721,-1.95252 -0.14982,-2.70394 7.18716,-4.95626 11.67817,-12.46657 11.67817,-23.13051 0,-18.62393 -12.72548,-32.29355 -37.8747,-32.29355 l -54.48965,0 c -1.94669,0 -3.59163,1.65273 -3.59163,3.60526 l 0,109.9468 c 0,1.95252 1.64494,3.60526 3.59163,3.60526 l 59.58023,0 c 23.65222,0 38.02264,-13.66962 38.02264,-33.04497 0,-12.61647 -6.43768,-21.17799 -16.76679,-25.98435 m -53.97378,-44.98788 28.918,0 c 13.76695,0 22.31874,7.91327 22.31874,20.65043 0,10.57244 -6.91657,16.69282 -7.21052,16.94784 -0.34067,0.29589 -0.76115,0.43995 -1.17969,0.43995 -0.50614,0 -1.00838,-0.21219 -1.36657,-0.62684 -0.65214,-0.75726 -0.57038,-1.90191 0.18493,-2.55405 0.0564,-0.0486 5.96075,-5.3417 5.96075,-14.2069 0,-10.66199 -6.99444,-17.02765 -18.70764,-17.02765 l -28.918,0 c -0.9967,0 -1.80458,-0.80982 -1.80458,-1.81237 0,-0.99864 0.80788,-1.81041 1.80458,-1.81041 m 35.26225,23.51011 c 0,5.55584 -2.994,9.31099 -11.07664,9.31099 l -21.70748,0 c -1.6469,0 -2.994,-1.351 -2.994,-3.00373 l 0,-12.61647 c 0,-1.65273 1.3471,-3.00373 2.994,-3.00373 l 23.35243,0 c 6.28779,0 9.43169,3.75515 9.43169,9.31294 m -48.77029,66.98152 c 0,0.99865 -0.80788,1.81042 -1.80653,1.81042 -0.9967,0 -1.80457,-0.81177 -1.80457,-1.81042 l 0,-88.68122 c 0,-0.99864 0.80787,-1.81041 1.80457,-1.81041 0.99865,0 1.80653,0.81177 1.80653,1.81041 l 0,88.68122 z m 63.85515,-3.50208 c -3.94593,3.39307 -9.2818,5.33975 -14.64297,5.33975 l -30.53764,0 c -0.68329,1.48922 -2.18223,2.52485 -3.92451,2.52485 -2.38664,0 -4.32359,-1.94279 -4.32359,-4.33721 0,-2.39637 1.93695,-4.33916 4.32359,-4.33916 1.74228,0 3.24122,1.03758 3.92451,2.5268 l 30.53764,0 c 8.84963,0 18.37671,-5.95686 18.37671,-19.03469 0,-14.85125 -14.07453,-23.06431 -23.80212,-23.06431 l -29.03674,0 c -0.99671,0 -1.80458,-0.81177 -1.80458,-1.81237 0,-1.00059 0.80787,-1.81042 1.80458,-1.81042 l 29.03674,0 c 6.15153,0 12.8929,2.57352 18.03604,6.88543 6.0464,5.06722 9.37718,12.10059 9.37718,19.80167 0,9.09492 -3.9946,14.43857 -7.34484,17.31966 m -50.86298,-13.16348 0,-14.56899 c 0,-1.65274 1.3471,-3.00374 2.994,-3.00374 l 26.94601,0 c 8.08458,0 11.07663,4.05495 11.07663,10.06242 0,6.15931 -2.99205,10.51404 -11.07663,10.51404 l -26.94601,0 c -1.6469,0 -2.994,-1.351 -2.994,-3.00373"
       style="fill:#043540;fill-opacity:1;fill-rule:nonzero;stroke:none"
       id="path3436"
       inkscape:connector-curvature="0" />
    <path
       d="m 19.234336,422.35613 -22.7528507,0 c -1.9466847,0 -3.5935799,1.65274 -3.5935799,3.60526 l 0,109.94681 c 0,1.95252 1.6468952,3.60331 3.5935799,3.60331 l 22.7528507,0 c 1.946684,0 3.59358,-1.65079 3.59358,-3.60331 l 0,-109.94681 c 0,-1.95252 -1.646896,-3.60526 -3.59358,-3.60526 m -9.5640621,18.87895 c 0.052483,0.17131 0.089548,0.35041 0.089548,0.53923 l 0,84.09483 c 0,1.0006 -0.8078742,1.81042 -1.8065234,1.81042 -0.9947558,0 -1.8045767,-0.80982 -1.8045767,-1.81042 l 0,-84.09483 c 0,-0.18882 0.037065,-0.36792 0.091572,-0.53923 -1.5359342,-0.66576 -2.6105041,-2.1978 -2.6105041,-3.98097 0,-2.39637 1.9369512,-4.33916 4.3235866,-4.33916 2.3885817,0 4.3255327,1.94279 4.3255327,4.33916 0,1.78317 -1.07457,3.31521 -2.6085568,3.98097"
       style="fill:#043540;fill-opacity:1;fill-rule:nonzero;stroke:none"
       id="path3440"
       inkscape:connector-curvature="0" />
    <path
       d="m -22.976017,422.35536 -95.506293,0 c -1.94668,0 -3.59358,1.65273 -3.59358,3.60526 l 0,21.9294 c 0,1.95252 1.6469,3.60526 3.59358,3.60526 l 29.790117,0 c 1.644948,0 2.992054,1.351 2.992054,3.00373 l 0,81.40841 c 0,1.95252 1.646895,3.60526 3.59358,3.60526 l 22.754797,0 c 1.944738,0 3.591633,-1.65274 3.591633,-3.60526 l 0,-81.40841 c 0,-1.65273 1.347106,-3.00373 2.994001,-3.00373 l 29.790111,0 c 1.946684,0 3.591633,-1.65274 3.591633,-3.60526 l 0,-21.9294 c 0,-1.95253 -1.644949,-3.60526 -3.591633,-3.60526 m -9.106591,16.89333 -36.88967,0 0,82.63871 c 1.483374,0.68718 2.517064,2.19002 2.517064,3.93814 0,2.39637 -1.935005,4.33916 -4.323587,4.33916 -2.386636,0 -4.323587,-1.94279 -4.323587,-4.33916 0,-1.74812 1.03369,-3.25096 2.51901,-3.93814 l 0,-82.63871 -39.576102,0 c -0.9967,0 -1.80457,-0.81177 -1.80457,-1.81237 0,-1.00059 0.80787,-1.81236 1.80457,-1.81236 l 80.076872,0 c 0.996702,0 1.804577,0.81177 1.804577,1.81236 0,1.0006 -0.807875,1.81237 -1.804577,1.81237"
       style="fill:#043540;fill-opacity:1;fill-rule:nonzero;stroke:none"
       id="path3444"
       inkscape:connector-curvature="0" />
  </g>
</svg>
